<svg width="188" height="46" viewBox="0 0 188 46" fill="none" xmlns="http://www.w3.org/2000/svg">
<path d="M68.8457 33H65.5264V26.2217H59.3066V33H55.9766V17.2949H59.3066V23.4502H65.5264V17.2949H68.8457V33ZM77.5146 20.7646C78.6247 20.7646 79.5807 20.9795 80.3828 21.4092C81.1849 21.8317 81.8044 22.4476 82.2412 23.2568C82.6781 24.0661 82.8965 25.0544 82.8965 26.2217V27.8115H75.1514C75.1872 28.7354 75.4629 29.4622 75.9785 29.9922C76.5013 30.515 77.2246 30.7764 78.1484 30.7764C78.9147 30.7764 79.6165 30.6976 80.2539 30.54C80.8913 30.3825 81.5465 30.1462 82.2197 29.8311V32.3662C81.6253 32.6598 81.0023 32.8747 80.3506 33.0107C79.7061 33.1468 78.9219 33.2148 77.998 33.2148C76.7949 33.2148 75.7279 32.9928 74.7969 32.5488C73.873 32.1048 73.1462 31.4281 72.6162 30.5186C72.0934 29.609 71.832 28.4632 71.832 27.0811C71.832 25.6774 72.0684 24.5101 72.541 23.5791C73.0208 22.641 73.6868 21.9391 74.5391 21.4736C75.3913 21.001 76.3831 20.7646 77.5146 20.7646ZM77.5361 23.0957C76.8988 23.0957 76.3688 23.2998 75.9463 23.708C75.5309 24.1162 75.291 24.7572 75.2266 25.6309H79.8242C79.8171 25.1439 79.7275 24.7106 79.5557 24.3311C79.391 23.9515 79.1403 23.6507 78.8037 23.4287C78.4743 23.2067 78.0518 23.0957 77.5361 23.0957ZM92.2637 20.7646C92.4284 20.7646 92.6182 20.7754 92.833 20.7969C93.055 20.8112 93.234 20.8327 93.3701 20.8613L93.123 23.9336C93.0156 23.8978 92.8617 23.8727 92.6611 23.8584C92.4678 23.8369 92.2995 23.8262 92.1562 23.8262C91.7337 23.8262 91.3219 23.8799 90.9209 23.9873C90.527 24.0947 90.1725 24.2702 89.8574 24.5137C89.5423 24.75 89.2917 25.0651 89.1055 25.459C88.9264 25.8457 88.8369 26.3219 88.8369 26.8877V33H85.5605V20.9902H88.042L88.5254 23.0098H88.6865C88.9229 22.6016 89.2165 22.2292 89.5674 21.8926C89.9255 21.5488 90.3301 21.2767 90.7812 21.0762C91.2396 20.8685 91.7337 20.7646 92.2637 20.7646ZM102.694 18.6807C101.828 18.6807 101.047 18.8311 100.353 19.1318C99.665 19.4255 99.0778 19.8551 98.5908 20.4209C98.111 20.9795 97.7422 21.6562 97.4844 22.4512C97.2266 23.2461 97.0977 24.1413 97.0977 25.1367C97.0977 26.4544 97.3018 27.6003 97.71 28.5742C98.1253 29.541 98.7412 30.2894 99.5576 30.8193C100.381 31.3493 101.409 31.6143 102.641 31.6143C103.342 31.6143 104.001 31.557 104.617 31.4424C105.24 31.3206 105.845 31.1702 106.433 30.9912V32.5811C105.86 32.7959 105.258 32.9535 104.628 33.0537C103.998 33.1611 103.249 33.2148 102.383 33.2148C100.786 33.2148 99.4502 32.8854 98.376 32.2266C97.3089 31.5605 96.5068 30.6224 95.9697 29.4121C95.4398 28.2018 95.1748 26.7731 95.1748 25.126C95.1748 23.9372 95.3395 22.8522 95.6689 21.8711C96.0055 20.8828 96.4925 20.0306 97.1299 19.3145C97.7744 18.5983 98.5622 18.0469 99.4932 17.6602C100.431 17.2663 101.506 17.0693 102.716 17.0693C103.511 17.0693 104.277 17.1481 105.015 17.3057C105.752 17.4632 106.418 17.6888 107.013 17.9824L106.282 19.5293C105.781 19.3001 105.229 19.1032 104.628 18.9385C104.034 18.7666 103.389 18.6807 102.694 18.6807ZM119.721 27.0918C119.721 28.0586 119.595 28.9215 119.345 29.6807C119.094 30.4398 118.732 31.0807 118.26 31.6035C117.787 32.1263 117.214 32.5273 116.541 32.8066C115.875 33.0788 115.119 33.2148 114.274 33.2148C113.487 33.2148 112.763 33.0788 112.104 32.8066C111.453 32.5273 110.887 32.1263 110.407 31.6035C109.935 31.0807 109.566 30.4398 109.301 29.6807C109.043 28.9215 108.914 28.0586 108.914 27.0918C108.914 25.8027 109.132 24.707 109.569 23.8047C110.006 22.8952 110.629 22.2041 111.438 21.7314C112.255 21.2516 113.225 21.0117 114.35 21.0117C115.424 21.0117 116.362 21.2516 117.164 21.7314C117.973 22.2113 118.6 22.9059 119.044 23.8154C119.495 24.7178 119.721 25.8099 119.721 27.0918ZM110.762 27.0918C110.762 28.0371 110.887 28.8571 111.138 29.5518C111.388 30.2464 111.775 30.7835 112.298 31.1631C112.821 31.5426 113.494 31.7324 114.317 31.7324C115.134 31.7324 115.803 31.5426 116.326 31.1631C116.856 30.7835 117.246 30.2464 117.497 29.5518C117.748 28.8571 117.873 28.0371 117.873 27.0918C117.873 26.1536 117.748 25.3444 117.497 24.6641C117.246 23.9766 116.86 23.4466 116.337 23.0742C115.814 22.7018 115.137 22.5156 114.307 22.5156C113.082 22.5156 112.183 22.9202 111.61 23.7295C111.045 24.5387 110.762 25.6595 110.762 27.0918ZM135.587 21.0117C136.883 21.0117 137.861 21.3519 138.52 22.0322C139.178 22.7054 139.508 23.7904 139.508 25.2871V33H137.746V25.373C137.746 24.4206 137.538 23.708 137.123 23.2354C136.715 22.7555 136.106 22.5156 135.297 22.5156C134.158 22.5156 133.331 22.8451 132.815 23.5039C132.3 24.1628 132.042 25.1331 132.042 26.415V33H130.27V25.373C130.27 24.7357 130.176 24.2057 129.99 23.7832C129.811 23.3607 129.539 23.0456 129.174 22.8379C128.816 22.623 128.361 22.5156 127.81 22.5156C127.029 22.5156 126.402 22.6768 125.93 22.999C125.457 23.3213 125.113 23.8011 124.898 24.4385C124.691 25.0687 124.587 25.8457 124.587 26.7695V33H122.804V21.2266H124.243L124.512 22.8916H124.608C124.845 22.4834 125.142 22.1396 125.5 21.8604C125.858 21.5811 126.259 21.3698 126.703 21.2266C127.147 21.0833 127.62 21.0117 128.121 21.0117C129.016 21.0117 129.765 21.18 130.366 21.5166C130.975 21.846 131.415 22.3509 131.688 23.0312H131.784C132.171 22.3509 132.701 21.846 133.374 21.5166C134.047 21.18 134.785 21.0117 135.587 21.0117ZM148.703 21.0117C150.171 21.0117 151.342 21.5166 152.216 22.5264C153.09 23.5361 153.526 25.0544 153.526 27.0811C153.526 28.4202 153.326 29.5446 152.925 30.4541C152.524 31.3636 151.958 32.0511 151.228 32.5166C150.504 32.9821 149.648 33.2148 148.66 33.2148C148.037 33.2148 147.489 33.1325 147.017 32.9678C146.544 32.8031 146.139 32.5811 145.803 32.3018C145.466 32.0225 145.187 31.7181 144.965 31.3887H144.836C144.857 31.668 144.882 32.0046 144.911 32.3984C144.947 32.7923 144.965 33.1361 144.965 33.4297V38.2637H143.171V21.2266H144.643L144.879 22.9668H144.965C145.194 22.6087 145.473 22.2829 145.803 21.9893C146.132 21.6885 146.533 21.4521 147.006 21.2803C147.486 21.1012 148.051 21.0117 148.703 21.0117ZM148.392 22.5156C147.575 22.5156 146.916 22.6732 146.415 22.9883C145.921 23.3034 145.559 23.776 145.33 24.4062C145.101 25.0293 144.979 25.8135 144.965 26.7588V27.1025C144.965 28.098 145.072 28.9395 145.287 29.627C145.509 30.3145 145.871 30.8372 146.372 31.1953C146.881 31.5534 147.561 31.7324 148.413 31.7324C149.144 31.7324 149.752 31.5355 150.239 31.1416C150.726 30.7477 151.088 30.1999 151.324 29.498C151.568 28.7891 151.689 27.9762 151.689 27.0596C151.689 25.6702 151.417 24.5674 150.873 23.751C150.336 22.9274 149.509 22.5156 148.392 22.5156ZM161.046 21.0332C162.45 21.0332 163.492 21.3483 164.172 21.9785C164.852 22.6087 165.192 23.6149 165.192 24.9971V33H163.893L163.549 31.2598H163.463C163.133 31.6895 162.79 32.0511 162.432 32.3447C162.074 32.6312 161.658 32.8496 161.186 33C160.72 33.1432 160.147 33.2148 159.467 33.2148C158.751 33.2148 158.113 33.0895 157.555 32.8389C157.003 32.5882 156.566 32.2087 156.244 31.7002C155.929 31.1917 155.771 30.5472 155.771 29.7666C155.771 28.5921 156.237 27.6898 157.168 27.0596C158.099 26.4294 159.517 26.0856 161.422 26.0283L163.452 25.9424V25.2227C163.452 24.2057 163.234 23.4932 162.797 23.085C162.36 22.6768 161.744 22.4727 160.949 22.4727C160.333 22.4727 159.746 22.5622 159.188 22.7412C158.629 22.9202 158.099 23.1315 157.598 23.375L157.05 22.0215C157.58 21.7493 158.188 21.5166 158.876 21.3232C159.563 21.1299 160.287 21.0332 161.046 21.0332ZM163.431 27.1992L161.637 27.2744C160.169 27.3317 159.134 27.5716 158.532 27.9941C157.931 28.4167 157.63 29.0146 157.63 29.7881C157.63 30.4613 157.834 30.959 158.242 31.2812C158.65 31.6035 159.191 31.7646 159.864 31.7646C160.91 31.7646 161.766 31.4746 162.432 30.8945C163.098 30.3145 163.431 29.4443 163.431 28.2842V27.1992ZM176.482 29.7773C176.482 30.5293 176.293 31.1631 175.913 31.6787C175.541 32.1872 175.004 32.5703 174.302 32.8281C173.607 33.0859 172.776 33.2148 171.81 33.2148C170.986 33.2148 170.273 33.1504 169.672 33.0215C169.07 32.8926 168.544 32.71 168.093 32.4736V30.8301C168.573 31.0664 169.146 31.2812 169.812 31.4746C170.478 31.668 171.158 31.7646 171.853 31.7646C172.869 31.7646 173.607 31.5999 174.065 31.2705C174.524 30.9411 174.753 30.4935 174.753 29.9277C174.753 29.6055 174.66 29.3226 174.474 29.0791C174.295 28.8285 173.99 28.5885 173.561 28.3594C173.131 28.123 172.536 27.8652 171.777 27.5859C171.025 27.2995 170.374 27.0166 169.822 26.7373C169.278 26.4508 168.855 26.1035 168.555 25.6953C168.261 25.2871 168.114 24.7572 168.114 24.1055C168.114 23.11 168.515 22.3473 169.317 21.8174C170.127 21.2803 171.187 21.0117 172.497 21.0117C173.206 21.0117 173.868 21.0833 174.484 21.2266C175.107 21.3626 175.688 21.5488 176.225 21.7852L175.623 23.2139C175.136 23.0062 174.617 22.8307 174.065 22.6875C173.514 22.5443 172.952 22.4727 172.379 22.4727C171.555 22.4727 170.922 22.6087 170.478 22.8809C170.041 23.153 169.822 23.5254 169.822 23.998C169.822 24.3633 169.923 24.6641 170.123 24.9004C170.331 25.1367 170.66 25.3587 171.111 25.5664C171.562 25.7741 172.157 26.0176 172.895 26.2969C173.632 26.569 174.27 26.8519 174.807 27.1455C175.344 27.432 175.756 27.7829 176.042 28.1982C176.336 28.6064 176.482 29.1328 176.482 29.7773ZM186.967 29.7773C186.967 30.5293 186.777 31.1631 186.397 31.6787C186.025 32.1872 185.488 32.5703 184.786 32.8281C184.091 33.0859 183.261 33.2148 182.294 33.2148C181.47 33.2148 180.758 33.1504 180.156 33.0215C179.555 32.8926 179.028 32.71 178.577 32.4736V30.8301C179.057 31.0664 179.63 31.2812 180.296 31.4746C180.962 31.668 181.642 31.7646 182.337 31.7646C183.354 31.7646 184.091 31.5999 184.55 31.2705C185.008 30.9411 185.237 30.4935 185.237 29.9277C185.237 29.6055 185.144 29.3226 184.958 29.0791C184.779 28.8285 184.475 28.5885 184.045 28.3594C183.615 28.123 183.021 27.8652 182.262 27.5859C181.51 27.2995 180.858 27.0166 180.307 26.7373C179.762 26.4508 179.34 26.1035 179.039 25.6953C178.745 25.2871 178.599 24.7572 178.599 24.1055C178.599 23.11 179 22.3473 179.802 21.8174C180.611 21.2803 181.671 21.0117 182.981 21.0117C183.69 21.0117 184.353 21.0833 184.969 21.2266C185.592 21.3626 186.172 21.5488 186.709 21.7852L186.107 23.2139C185.62 23.0062 185.101 22.8307 184.55 22.6875C183.998 22.5443 183.436 22.4727 182.863 22.4727C182.04 22.4727 181.406 22.6087 180.962 22.8809C180.525 23.153 180.307 23.5254 180.307 23.998C180.307 24.3633 180.407 24.6641 180.607 24.9004C180.815 25.1367 181.145 25.3587 181.596 25.5664C182.047 25.7741 182.641 26.0176 183.379 26.2969C184.117 26.569 184.754 26.8519 185.291 27.1455C185.828 27.432 186.24 27.7829 186.526 28.1982C186.82 28.6064 186.967 29.1328 186.967 29.7773Z" fill="#000007"/>
<circle cx="23" cy="23" r="23" fill="url(#paint0_linear_142_6)"/>
<path d="M23.0166 30H20.3008V24.4541H15.2119V30H12.4873V17.1504H15.2119V22.1865H20.3008V17.1504H23.0166V30ZM31.7266 19.2334C31.2051 19.2334 30.7422 19.3359 30.3379 19.541C29.9395 19.7402 29.6025 20.0303 29.3271 20.4111C29.0576 20.792 28.8525 21.252 28.7119 21.791C28.5713 22.3301 28.501 22.9365 28.501 23.6104C28.501 24.5186 28.6123 25.2949 28.835 25.9395C29.0635 26.5781 29.415 27.0674 29.8896 27.4072C30.3643 27.7412 30.9766 27.9082 31.7266 27.9082C32.248 27.9082 32.7695 27.8496 33.291 27.7324C33.8184 27.6152 34.3896 27.4482 35.0049 27.2314V29.5166C34.4365 29.751 33.877 29.918 33.3262 30.0176C32.7754 30.123 32.1572 30.1758 31.4717 30.1758C30.1475 30.1758 29.0576 29.9033 28.2021 29.3584C27.3525 28.8076 26.7227 28.04 26.3125 27.0557C25.9023 26.0654 25.6973 24.9111 25.6973 23.5928C25.6973 22.6201 25.8291 21.7295 26.0928 20.9209C26.3564 20.1123 26.7432 19.4121 27.2529 18.8203C27.7627 18.2285 28.3926 17.7715 29.1426 17.4492C29.8926 17.127 30.7539 16.9658 31.7266 16.9658C32.3652 16.9658 33.0039 17.0479 33.6426 17.2119C34.2871 17.3701 34.9023 17.5898 35.4883 17.8711L34.6094 20.0859C34.1289 19.8574 33.6455 19.6582 33.1592 19.4883C32.6729 19.3184 32.1953 19.2334 31.7266 19.2334Z" fill="white"/>
<defs>
<linearGradient id="paint0_linear_142_6" x1="15.525" y1="5.75" x2="29.325" y2="36.8" gradientUnits="userSpaceOnUse">
<stop stop-color="#9B8BF0"/>
<stop offset="1" stop-color="#8DA695"/>
</linearGradient>
</defs>
</svg>
