<svg width="210" height="44" viewBox="0 0 210 44" fill="none" xmlns="http://www.w3.org/2000/svg">
<path d="M71.5467 13.5V31H67.6217V23.75H61.0467V31H57.1467V13.5H61.0467V20.7H67.6217V13.5H71.5467ZM80.1139 31.225C78.7139 31.225 77.5305 30.9083 76.5639 30.275C75.6139 29.625 74.9055 28.7833 74.4389 27.75C73.9889 26.7 73.7639 25.575 73.7639 24.375C73.7639 23.175 73.9889 22.0583 74.4389 21.025C74.9055 19.975 75.6139 19.125 76.5639 18.475C77.5305 17.825 78.7305 17.5 80.1639 17.5C82.0305 17.5 83.5139 18.0917 84.6139 19.275C85.7139 20.4417 86.2639 22.1417 86.2639 24.375V25.45H77.5139V25.65C77.5139 26.3333 77.7472 26.925 78.2139 27.425C78.6972 27.9083 79.3055 28.15 80.0389 28.15C80.6055 28.15 81.0889 28.025 81.4889 27.775C81.8889 27.5083 82.1722 27.1583 82.3389 26.725H86.1639C85.8305 28.0417 85.1389 29.125 84.0889 29.975C83.0555 30.8083 81.7305 31.225 80.1139 31.225ZM82.5389 22.95C82.5222 22.05 82.2889 21.3833 81.8389 20.95C81.4055 20.5167 80.8222 20.3 80.0889 20.3C79.3389 20.3 78.7389 20.5333 78.2889 21C77.8555 21.4667 77.6305 22.1167 77.6139 22.95H82.5389ZM88.6193 17.775H92.4943V19.875H92.6943C92.8943 19.2917 93.286 18.8 93.8693 18.4C94.4693 17.9833 95.2443 17.775 96.1943 17.775C96.4777 17.775 96.7443 17.8 96.9943 17.85L96.8193 21.425C96.436 21.2917 95.9943 21.225 95.4943 21.225C94.4443 21.225 93.6777 21.4917 93.1943 22.025C92.7277 22.5583 92.4943 23.4417 92.4943 24.675V31H88.6193V17.775ZM106.43 31.175C104.796 31.175 103.388 30.7917 102.205 30.025C101.021 29.2417 100.113 28.1667 99.4797 26.8C98.863 25.4333 98.5547 23.8833 98.5547 22.15C98.5547 20.4167 98.863 18.8667 99.4797 17.5C100.113 16.1333 101.021 15.0667 102.205 14.3C103.388 13.5167 104.796 13.125 106.43 13.125C108.396 13.125 110.021 13.6833 111.305 14.8C112.588 15.9 113.446 17.3917 113.88 19.275H111.755C111.405 17.9917 110.763 16.975 109.83 16.225C108.896 15.4583 107.771 15.075 106.455 15.075C104.638 15.075 103.246 15.7167 102.28 17C101.313 18.2667 100.83 19.975 100.83 22.125C100.83 24.2917 101.313 26.0167 102.28 27.3C103.246 28.5667 104.638 29.2 106.455 29.2C107.705 29.2 108.78 28.8667 109.68 28.2C110.58 27.5167 111.221 26.6083 111.605 25.475H113.73C113.263 27.2083 112.396 28.5917 111.13 29.625C109.88 30.6583 108.313 31.175 106.43 31.175ZM122.428 31.175C121.094 31.175 119.961 30.8583 119.028 30.225C118.111 29.575 117.419 28.7333 116.953 27.7C116.486 26.65 116.253 25.525 116.253 24.325C116.253 23.125 116.486 22.0083 116.953 20.975C117.419 19.925 118.111 19.0833 119.028 18.45C119.961 17.8 121.094 17.475 122.428 17.475C123.761 17.475 124.886 17.8 125.803 18.45C126.736 19.0833 127.428 19.925 127.878 20.975C128.344 22.025 128.578 23.1417 128.578 24.325C128.578 25.5083 128.344 26.625 127.878 27.675C127.411 28.725 126.711 29.575 125.778 30.225C124.861 30.8583 123.744 31.175 122.428 31.175ZM122.428 29.325C123.244 29.325 123.953 29.1 124.553 28.65C125.169 28.2 125.636 27.6 125.953 26.85C126.269 26.0833 126.428 25.2333 126.428 24.3C126.428 22.8667 126.069 21.675 125.353 20.725C124.636 19.775 123.661 19.3 122.428 19.3C121.594 19.3 120.869 19.525 120.253 19.975C119.653 20.425 119.194 21.0333 118.878 21.8C118.561 22.55 118.403 23.3833 118.403 24.3C118.403 25.7333 118.761 26.9333 119.478 27.9C120.194 28.85 121.178 29.325 122.428 29.325ZM131.721 17.825H133.846V20.25H134.046C134.079 20.0833 134.246 19.7833 134.546 19.35C134.846 18.9 135.304 18.475 135.921 18.075C136.537 17.675 137.304 17.475 138.221 17.475C139.187 17.475 139.987 17.7 140.621 18.15C141.271 18.6 141.754 19.0833 142.071 19.6C142.387 20.1167 142.546 20.4417 142.546 20.575H142.746C142.979 19.9917 143.437 19.3333 144.121 18.6C144.821 17.85 145.887 17.475 147.321 17.475C148.387 17.475 149.279 17.75 149.996 18.3C150.712 18.8333 151.237 19.525 151.571 20.375C151.921 21.225 152.096 22.1333 152.096 23.1V31H149.971V23.3C149.971 22.0333 149.637 21.075 148.971 20.425C148.321 19.775 147.512 19.45 146.546 19.45C145.546 19.45 144.696 19.7917 143.996 20.475C143.312 21.1417 142.971 22.0833 142.971 23.3V31H140.846V23.3C140.846 22.0333 140.512 21.075 139.846 20.425C139.196 19.775 138.387 19.45 137.421 19.45C136.421 19.45 135.571 19.7917 134.871 20.475C134.187 21.1417 133.846 22.0833 133.846 23.3V31H131.721V17.825ZM162.594 31.175C161.444 31.175 160.502 30.8917 159.769 30.325C159.036 29.7583 158.469 29.0833 158.069 28.3H157.894V36.075H155.719V17.825H157.894V20.275H158.069C158.436 19.5083 158.977 18.85 159.694 18.3C160.411 17.75 161.352 17.475 162.519 17.475C163.702 17.475 164.711 17.775 165.544 18.375C166.394 18.9583 167.036 19.775 167.469 20.825C167.902 21.8583 168.119 23.025 168.119 24.325C168.119 25.625 167.902 26.7917 167.469 27.825C167.036 28.8583 166.402 29.675 165.569 30.275C164.736 30.875 163.744 31.175 162.594 31.175ZM161.919 29.325C163.219 29.325 164.202 28.85 164.869 27.9C165.552 26.95 165.894 25.7583 165.894 24.325C165.894 22.9083 165.561 21.725 164.894 20.775C164.227 19.825 163.236 19.35 161.919 19.35C160.619 19.35 159.627 19.825 158.944 20.775C158.277 21.725 157.944 22.9083 157.944 24.325C157.944 25.7417 158.286 26.9333 158.969 27.9C159.652 28.85 160.636 29.325 161.919 29.325ZM176.121 31.175C174.954 31.175 173.954 30.875 173.121 30.275C172.304 29.675 171.679 28.8583 171.246 27.825C170.813 26.7917 170.596 25.625 170.596 24.325C170.596 23.025 170.813 21.8583 171.246 20.825C171.696 19.775 172.338 18.9583 173.171 18.375C174.021 17.775 175.029 17.475 176.196 17.475C177.363 17.475 178.304 17.75 179.021 18.3C179.738 18.85 180.279 19.5083 180.646 20.275H180.821V17.825H182.996V31H180.821V28.3H180.646C180.246 29.0833 179.679 29.7583 178.946 30.325C178.213 30.8917 177.271 31.175 176.121 31.175ZM176.796 29.325C178.079 29.325 179.063 28.85 179.746 27.9C180.429 26.9333 180.771 25.7417 180.771 24.325C180.771 22.9083 180.429 21.725 179.746 20.775C179.063 19.8083 178.079 19.325 176.796 19.325C175.479 19.325 174.479 19.8 173.796 20.75C173.129 21.7 172.796 22.8833 172.796 24.3C172.796 25.7333 173.129 26.9333 173.796 27.9C174.479 28.85 175.479 29.325 176.796 29.325ZM191.299 31.175C190.232 31.175 189.307 30.9667 188.524 30.55C187.74 30.1167 187.14 29.5667 186.724 28.9C186.324 28.2333 186.124 27.5333 186.124 26.8V26.675H188.274V26.775C188.274 27.1917 188.39 27.6083 188.624 28.025C188.857 28.425 189.207 28.7583 189.674 29.025C190.14 29.275 190.707 29.4 191.374 29.4C192.174 29.4 192.832 29.2083 193.349 28.825C193.882 28.425 194.149 27.8833 194.149 27.2C194.149 26.6333 193.94 26.1833 193.524 25.85C193.124 25.5167 192.615 25.3 191.999 25.2L190.274 24.95C189.19 24.7833 188.282 24.4167 187.549 23.85C186.815 23.2667 186.449 22.425 186.449 21.325C186.449 20.1083 186.882 19.1667 187.749 18.5C188.632 17.8167 189.757 17.475 191.124 17.475C192.14 17.475 193.007 17.6667 193.724 18.05C194.457 18.4167 195.015 18.9083 195.399 19.525C195.782 20.125 195.974 20.7833 195.974 21.5V21.6H193.824V21.55C193.824 21.2167 193.732 20.8667 193.549 20.5C193.382 20.1333 193.09 19.8167 192.674 19.55C192.257 19.2833 191.724 19.15 191.074 19.15C190.274 19.15 189.632 19.35 189.149 19.75C188.665 20.1333 188.424 20.6417 188.424 21.275C188.424 21.7917 188.615 22.2167 188.999 22.55C189.382 22.8833 189.865 23.1 190.449 23.2L192.324 23.5C193.424 23.6833 194.349 24.0667 195.099 24.65C195.849 25.2167 196.224 26.0583 196.224 27.175C196.224 27.975 196.007 28.675 195.574 29.275C195.157 29.875 194.574 30.3417 193.824 30.675C193.074 31.0083 192.232 31.175 191.299 31.175ZM203.701 31.175C202.635 31.175 201.71 30.9667 200.926 30.55C200.143 30.1167 199.543 29.5667 199.126 28.9C198.726 28.2333 198.526 27.5333 198.526 26.8V26.675H200.676V26.775C200.676 27.1917 200.793 27.6083 201.026 28.025C201.26 28.425 201.61 28.7583 202.076 29.025C202.543 29.275 203.11 29.4 203.776 29.4C204.576 29.4 205.235 29.2083 205.751 28.825C206.285 28.425 206.551 27.8833 206.551 27.2C206.551 26.6333 206.343 26.1833 205.926 25.85C205.526 25.5167 205.018 25.3 204.401 25.2L202.676 24.95C201.593 24.7833 200.685 24.4167 199.951 23.85C199.218 23.2667 198.851 22.425 198.851 21.325C198.851 20.1083 199.285 19.1667 200.151 18.5C201.035 17.8167 202.16 17.475 203.526 17.475C204.543 17.475 205.41 17.6667 206.126 18.05C206.86 18.4167 207.418 18.9083 207.801 19.525C208.185 20.125 208.376 20.7833 208.376 21.5V21.6H206.226V21.55C206.226 21.2167 206.135 20.8667 205.951 20.5C205.785 20.1333 205.493 19.8167 205.076 19.55C204.66 19.2833 204.126 19.15 203.476 19.15C202.676 19.15 202.035 19.35 201.551 19.75C201.068 20.1333 200.826 20.6417 200.826 21.275C200.826 21.7917 201.018 22.2167 201.401 22.55C201.785 22.8833 202.268 23.1 202.851 23.2L204.726 23.5C205.826 23.6833 206.751 24.0667 207.501 24.65C208.251 25.2167 208.626 26.0583 208.626 27.175C208.626 27.975 208.41 28.675 207.976 29.275C207.56 29.875 206.976 30.3417 206.226 30.675C205.476 31.0083 204.635 31.175 203.701 31.175Z" fill="white"/>
<path d="M9.80861 0.422808C14.7599 -1.01652 19.053 1.49229 21.5479 3.84371C18.7504 5.87946 17.3927 10.852 16.8477 12.3056C16.025 12.397 15.4764 11.6654 14.7451 10.8427C14.6537 11.6653 15.4758 12.7628 16.207 13.4941C14.5617 16.1448 12.2768 16.5105 11.4541 17.1503C10.6314 17.7902 10.2658 18.7048 11.4541 19.3447C12.4047 19.8566 12.3983 20.3503 12.2764 20.5332C11.9106 20.9905 11.2348 22.0322 11.4541 22.5439C11.6736 23.0557 12.5209 23.4269 12.917 23.5488V23.8232H11.4541C11.2408 23.9451 10.9422 24.3722 11.4541 25.1035C12.0938 26.0175 11.7283 27.1146 11.4541 28.1201C10.0835 31.8669 13.0982 32.4162 13.4649 32.5078C13.8305 32.5992 16.3906 33.1474 18.2188 33.6044C23.9524 35.3527 24.7372 41.0287 24.3955 44C24.1854 43.9602 23.9081 43.8649 23.7031 43.6601C23.1547 43.2031 9.16934 32.1421 3.68458 24.6464C-0.702607 18.6506 -0.2772 11.7894 0.484388 9.10738C0.971904 6.97449 3.51972 2.25105 9.80861 0.422808ZM33.4365 0.538042C36.3617 -0.0104195 43.6754 -0.0111291 47.5147 7.75875C51.3536 15.5285 45.7777 24.0301 42.8526 27.6865C40.5122 30.6117 32.1881 37.924 28.3184 41.2148C31.6993 37.5595 31.8071 34.4232 31.8828 33.9023C31.9416 33.499 31.902 32.8508 31.7949 32.0488C31.783 31.8666 31.7685 31.6842 31.7471 31.5019C31.524 29.6056 31.011 27.6497 30.4531 25.9277C29.9391 24.0828 29.3663 22.341 28.8662 21.1962C28.5184 20.5254 28.1178 19.8137 27.7031 19.0546C26.756 16.7613 25.262 12.8208 24.8067 9.82418C24.7857 9.02219 24.8231 8.18246 24.9356 7.30171C24.9721 7.01537 25.0322 6.73921 25.1094 6.47261C25.8331 4.66748 27.344 3.23887 28.4522 2.46187C30.1089 1.42263 32.0207 0.803594 33.4365 0.538042Z" fill="#FF6F61"/>
</svg>
